<?xml version="1.0" standalone="no"?>
<!DOCTYPE svg PUBLIC "-//W3C//DTD SVG 20010904//EN"
 "http://www.w3.org/TR/2001/REC-SVG-20010904/DTD/svg10.dtd">
<svg version="1.0" xmlns="http://www.w3.org/2000/svg"
 width="500.000000pt" height="500.000000pt" viewBox="0 0 500.000000 500.000000"
 preserveAspectRatio="xMidYMid meet">
<metadata>
Created by potrace 1.11, written by Peter Selinger 2001-2013
</metadata>
<g transform="translate(0.000000,500.000000) scale(0.100000,-0.100000)"
fill="#000000" stroke="none">
<path d="M540 4920 l0 -40 -40 0 -40 0 0 -70 0 -70 80 0 80 0 0 100 0 100 240
0 240 0 0 -100 0 -100 -110 0 c-67 0 -110 -4 -110 -10 0 -6 -33 -10 -80 -10
-73 0 -80 -2 -80 -20 0 -18 7 -20 80 -20 47 0 80 -4 80 -10 0 -6 -33 -10 -80
-10 -47 0 -80 -4 -80 -10 0 -6 40 -10 100 -10 l100 0 0 40 0 40 220 0 220 0 0
-40 0 -40 1650 0 1650 0 0 -160 0 -160 70 0 70 0 0 280 0 280 -30 0 c-28 0
-30 2 -30 40 l0 40 -2100 0 -2100 0 0 -40z"/>
<path d="M300 4600 l0 -280 30 0 30 0 0 280 0 280 -30 0 -30 0 0 -280z"/>
<path d="M460 4440 l0 -120 80 0 80 0 0 70 c0 63 -2 70 -20 70 -17 0 -20 7
-20 50 l0 50 -60 0 -60 0 0 -120z"/>
<path d="M1440 4440 c0 -11 -4 -20 -10 -20 -5 0 -10 -13 -10 -30 0 -16 -4 -30
-10 -30 -5 0 -10 -13 -10 -30 0 -16 -4 -30 -10 -30 -5 0 -10 -13 -10 -30 0
-16 -4 -30 -10 -30 -5 0 -10 -13 -10 -30 0 -16 5 -30 10 -30 6 0 10 -13 10
-30 0 -16 -4 -30 -10 -30 -5 0 -10 -4 -10 -10 0 -5 25 -10 56 -10 62 0 84 14
84 54 0 25 1 26 70 26 l70 0 0 30 0 30 -70 0 -70 0 0 30 c0 17 5 30 10 30 6 0
10 14 10 30 0 17 5 30 10 30 6 0 10 14 10 30 0 17 5 30 10 30 6 0 10 9 10 20
0 18 -7 20 -60 20 -53 0 -60 -2 -60 -20z"/>
<path d="M1763 4435 c-13 -13 -23 -36 -23 -50 0 -14 -4 -25 -10 -25 -5 0 -10
-13 -10 -30 0 -16 -4 -30 -10 -30 -5 0 -10 -13 -10 -30 0 -16 -4 -30 -10 -30
-5 0 -10 -9 -10 -20 0 -11 5 -20 10 -20 6 0 10 -18 10 -40 0 -22 -4 -40 -10
-40 -5 0 -10 -4 -10 -10 0 -5 25 -10 56 -10 62 0 84 14 84 54 0 19 5 26 20 26
16 0 20 -7 20 -30 0 -16 -4 -30 -10 -30 -5 0 -10 -4 -10 -10 0 -5 25 -10 56
-10 62 0 84 14 84 54 0 14 5 26 10 26 6 0 10 5 10 10 0 6 -9 10 -20 10 -13 0
-20 7 -20 20 0 11 5 20 10 20 6 0 10 14 10 30 0 17 5 30 10 30 6 0 10 14 10
30 0 17 5 30 10 30 6 0 10 14 10 30 0 17 5 30 10 30 6 0 10 5 10 10 0 6 -9 10
-20 10 -11 0 -20 5 -20 10 0 6 -42 10 -107 9 -101 0 -110 -2 -130 -24z m137
-55 c0 -11 -4 -20 -10 -20 -5 0 -10 -13 -10 -30 0 -16 -4 -30 -10 -30 -5 0
-10 -13 -10 -30 0 -23 -4 -30 -20 -30 -16 0 -20 7 -20 30 0 17 5 30 10 30 6 0
10 14 10 30 0 17 5 30 10 30 6 0 10 9 10 20 0 13 7 20 20 20 13 0 20 -7 20
-20z"/>
<path d="M2103 4435 c-13 -13 -23 -36 -23 -50 0 -14 -4 -25 -10 -25 -5 0 -10
-13 -10 -30 0 -16 -4 -30 -10 -30 -5 0 -10 -13 -10 -30 0 -16 -4 -30 -10 -30
-5 0 -10 -9 -10 -20 0 -11 5 -20 10 -20 6 0 10 -18 10 -40 0 -22 -4 -40 -10
-40 -5 0 -10 -4 -10 -10 0 -5 25 -10 56 -10 62 0 84 14 84 54 0 25 1 26 70 26
l70 0 0 30 0 30 -70 0 -70 0 0 30 c0 17 5 30 10 30 6 0 10 14 10 30 0 17 5 30
10 30 6 0 10 9 10 20 0 18 7 20 76 20 78 0 104 11 104 44 0 14 -18 16 -127 15
-122 0 -129 -1 -150 -24z"/>
<path d="M2423 4435 c-13 -13 -23 -36 -23 -50 0 -14 -4 -25 -10 -25 -5 0 -10
-13 -10 -30 0 -16 -4 -30 -10 -30 -5 0 -10 -13 -10 -30 0 -16 -4 -30 -10 -30
-5 0 -10 -13 -10 -30 0 -16 5 -30 10 -30 6 0 10 -13 10 -30 0 -16 -4 -30 -10
-30 -5 0 -10 -4 -10 -10 0 -6 52 -10 136 -10 147 0 164 6 164 54 0 14 5 26 10
26 6 0 10 5 10 10 0 6 -9 10 -20 10 -13 0 -20 7 -20 20 0 11 5 20 10 20 6 0
10 14 10 30 0 17 5 30 10 30 6 0 10 14 10 30 0 17 5 30 10 30 6 0 10 14 10 30
0 17 5 30 10 30 6 0 10 5 10 10 0 6 -9 10 -20 10 -11 0 -20 5 -20 10 0 6 -42
10 -107 9 -101 0 -110 -2 -130 -24z m137 -51 c0 -8 -6 -22 -14 -30 -17 -16
-46 -19 -46 -4 0 6 5 10 10 10 6 0 10 9 10 20 0 13 7 20 20 20 12 0 20 -7 20
-16z m-40 -124 c0 -11 -4 -20 -10 -20 -5 0 -10 -9 -10 -20 0 -13 -7 -20 -20
-20 -13 0 -20 7 -20 20 0 11 5 20 10 20 6 0 10 9 10 20 0 13 7 20 20 20 13 0
20 -7 20 -20z m0 -90 c0 -5 -9 -10 -20 -10 -11 0 -20 5 -20 10 0 6 9 10 20 10
11 0 20 -4 20 -10z"/>
<path d="M2760 4440 c0 -11 -4 -20 -10 -20 -5 0 -10 -13 -10 -30 0 -16 -4 -30
-10 -30 -5 0 -10 -13 -10 -30 0 -16 -4 -30 -10 -30 -5 0 -10 -13 -10 -30 0
-16 -4 -30 -10 -30 -5 0 -10 -13 -10 -30 0 -16 5 -30 10 -30 6 0 10 -13 10
-30 0 -16 -4 -30 -10 -30 -5 0 -10 -4 -10 -10 0 -5 25 -10 56 -10 62 0 84 14
84 54 0 25 1 26 70 26 l70 0 0 30 0 30 -70 0 -70 0 0 30 c0 17 5 30 10 30 6 0
10 14 10 30 0 17 5 30 10 30 6 0 10 14 10 30 0 17 5 30 10 30 6 0 10 9 10 20
0 18 -7 20 -60 20 -53 0 -60 -2 -60 -20z"/>
<path d="M3263 4435 c-13 -13 -23 -36 -23 -50 0 -14 -4 -25 -10 -25 -5 0 -10
-13 -10 -30 0 -16 -4 -30 -10 -30 -5 0 -10 -13 -10 -30 0 -16 -4 -30 -10 -30
-5 0 -10 -9 -10 -20 0 -11 5 -20 10 -20 6 0 10 -18 10 -40 0 -22 -4 -40 -10
-40 -5 0 -10 -4 -10 -10 0 -5 25 -10 56 -10 62 0 84 14 84 54 0 25 1 26 70 26
l70 0 0 30 c0 17 5 30 10 30 6 0 10 14 10 30 0 17 5 30 10 30 6 0 10 9 10 20
0 18 -7 20 -70 20 -62 0 -70 -2 -70 -19 0 -11 -6 -22 -12 -25 -10 -5 -10 -7 0
-12 20 -10 15 -44 -8 -44 -16 0 -20 7 -20 30 0 17 5 30 10 30 6 0 10 14 10 30
0 17 5 30 10 30 6 0 10 9 10 20 0 18 7 20 76 20 78 0 104 11 104 44 0 14 -18
16 -127 15 -122 0 -129 -1 -150 -24z"/>
<path d="M3580 4440 c0 -11 -4 -20 -10 -20 -5 0 -10 -13 -10 -30 0 -16 -4 -30
-10 -30 -5 0 -10 -13 -10 -30 0 -16 -4 -30 -10 -30 -5 0 -10 -13 -10 -30 0
-16 -4 -30 -10 -30 -5 0 -10 -13 -10 -30 0 -16 5 -30 10 -30 6 0 10 -13 10
-30 0 -16 -4 -30 -10 -30 -5 0 -10 -4 -10 -10 0 -5 25 -10 56 -10 62 0 84 14
84 54 0 14 5 26 10 26 6 0 10 5 10 10 0 6 -9 10 -20 10 -13 0 -20 7 -20 20 0
11 5 20 10 20 6 0 10 14 10 30 0 17 5 30 10 30 6 0 10 14 10 30 0 17 5 30 10
30 6 0 10 14 10 30 0 17 5 30 10 30 6 0 10 9 10 20 0 18 -7 20 -60 20 -53 0
-60 -2 -60 -20z"/>
<path d="M3760 4440 c0 -11 -4 -20 -10 -20 -5 0 -10 -13 -10 -30 0 -16 -4 -30
-10 -30 -5 0 -10 -13 -10 -30 0 -16 -4 -30 -10 -30 -5 0 -10 -13 -10 -30 0
-16 -4 -30 -10 -30 -5 0 -10 -13 -10 -30 0 -16 5 -30 10 -30 6 0 10 -13 10
-30 0 -16 -4 -30 -10 -30 -5 0 -10 -4 -10 -10 0 -6 45 -10 116 -10 119 0 144
8 144 44 0 9 8 16 20 16 11 0 20 5 20 10 0 6 9 10 20 10 16 0 20 -7 20 -30 0
-16 -4 -30 -10 -30 -5 0 -10 -4 -10 -10 0 -5 25 -10 56 -10 62 0 84 14 84 54
0 25 1 26 70 26 l70 0 0 30 0 30 -70 0 -70 0 0 30 c0 17 5 30 10 30 6 0 10 14
10 30 0 17 5 30 10 30 6 0 10 14 10 30 0 17 5 30 10 30 6 0 10 9 10 20 0 18
-7 20 -60 20 -53 0 -60 -2 -60 -20 0 -11 -4 -20 -10 -20 -5 0 -10 -13 -10 -30
0 -16 -4 -30 -10 -30 -5 0 -10 -13 -10 -30 0 -16 -4 -30 -10 -30 -5 0 -10 -13
-10 -30 0 -16 -4 -30 -10 -30 -5 0 -10 -9 -10 -20 0 -13 -7 -20 -20 -20 -13 0
-20 7 -20 20 0 11 5 20 10 20 6 0 10 9 10 20 0 13 -7 20 -20 20 -11 0 -20 5
-20 10 0 6 5 10 10 10 6 0 10 9 10 20 0 12 7 20 16 20 8 0 22 6 30 14 16 17
19 66 4 66 -5 0 -10 9 -10 20 0 19 -7 20 -120 20 -113 0 -120 -1 -120 -20z
m140 -56 c0 -8 -6 -22 -14 -30 -17 -16 -46 -19 -46 -4 0 6 5 10 10 10 6 0 10
9 10 20 0 13 7 20 20 20 12 0 20 -7 20 -16z m-40 -124 c0 -11 -4 -20 -10 -20
-5 0 -10 -9 -10 -20 0 -13 -7 -20 -20 -20 -13 0 -20 7 -20 20 0 11 5 20 10 20
6 0 10 9 10 20 0 13 7 20 20 20 13 0 20 -7 20 -20z m0 -90 c0 -5 -9 -10 -20
-10 -11 0 -20 5 -20 10 0 6 9 10 20 10 11 0 20 -4 20 -10z"/>
<path d="M293 4285 c-10 -11 -13 -97 -13 -360 0 -223 -4 -345 -10 -345 -6 0
-10 -127 -10 -360 0 -233 -4 -360 -10 -360 -6 0 -10 -127 -10 -360 0 -233 -4
-360 -10 -360 -6 0 -10 -127 -10 -360 0 -233 -4 -360 -10 -360 -6 0 -10 -47
-10 -120 l0 -120 60 0 60 0 0 120 c0 73 4 120 10 120 6 0 10 127 10 360 0 233
4 360 10 360 7 0 10 333 10 980 0 647 -3 980 -10 980 -5 0 -10 -22 -10 -50 0
-27 -4 -50 -10 -50 -6 0 -10 37 -10 90 0 83 1 90 20 90 23 0 28 34 8 44 -10 5
-10 7 0 12 6 3 12 19 12 35 0 25 -4 29 -27 29 -16 -1 -34 -7 -40 -15z"/>
<path d="M453 4285 c-7 -8 -13 -21 -13 -30 0 -12 15 -15 80 -15 73 0 80 2 80
20 0 11 5 20 10 20 6 0 10 5 10 10 0 16 -153 12 -167 -5z"/>
<path d="M4653 4285 c-10 -11 -13 -97 -13 -360 0 -223 -4 -345 -10 -345 -6 0
-10 -127 -10 -360 0 -233 -4 -360 -10 -360 -6 0 -10 -127 -10 -360 0 -233 -4
-360 -10 -360 -6 0 -10 -83 -10 -230 0 -223 1 -230 20 -230 11 0 20 -4 20 -10
0 -5 -9 -10 -20 -10 -11 0 -20 -4 -20 -10 0 -5 9 -10 20 -10 11 0 20 -4 20
-10 0 -5 -9 -10 -20 -10 -11 0 -20 -3 -20 -6 0 -11 29 -34 44 -34 9 0 16 -4
16 -10 0 -6 -50 -10 -130 -10 -80 0 -130 -4 -130 -10 0 -6 50 -10 130 -10 80
0 130 -4 130 -10 0 -6 -50 -10 -130 -10 -80 0 -130 -4 -130 -10 0 -6 50 -10
130 -10 80 0 130 -4 130 -10 0 -6 -50 -10 -130 -10 -80 0 -130 -4 -130 -10 0
-6 40 -10 100 -10 93 0 100 -1 100 -20 0 -11 -4 -20 -10 -20 -6 0 -10 -47 -10
-120 l0 -120 80 0 80 0 0 120 c0 73 4 120 10 120 6 0 10 127 10 360 0 233 4
360 10 360 6 0 10 127 10 360 0 233 4 360 10 360 6 0 10 127 10 360 0 233 4
360 10 360 6 0 10 127 10 360 l0 360 -67 0 c-46 -1 -72 -5 -80 -15z"/>
<path d="M440 4200 c0 -18 7 -20 60 -20 l60 0 0 -40 0 -40 -60 0 -60 0 0 -150
0 -150 130 0 c123 0 130 1 130 20 0 11 -4 20 -10 20 -5 0 -10 18 -10 40 l0 40
-40 0 -40 0 0 150 0 150 -80 0 c-73 0 -80 -2 -80 -20z"/>
<path d="M3340 4140 c0 -11 -4 -20 -10 -20 -5 0 -10 -4 -10 -10 0 -6 29 -10
66 -10 67 0 94 13 94 44 0 13 -13 16 -70 16 -63 0 -70 -2 -70 -20z"/>
<path d="M2053 4045 c-7 -8 -13 -26 -13 -40 0 -14 -4 -25 -10 -25 -5 0 -10
-13 -10 -30 0 -16 -4 -30 -10 -30 -5 0 -10 -13 -10 -30 0 -16 -4 -30 -10 -30
-5 0 -10 -13 -10 -30 0 -16 -4 -30 -10 -30 -5 0 -10 -4 -10 -10 0 -6 26 -10
58 -10 46 0 60 4 72 20 15 21 50 28 50 10 0 -5 -4 -10 -10 -10 -5 0 -10 -4
-10 -10 0 -6 26 -10 58 -10 46 0 60 4 72 20 8 11 22 20 32 20 10 0 18 5 18 10
0 6 -9 10 -20 10 -11 0 -20 5 -20 10 0 6 5 10 10 10 6 0 10 5 10 10 0 6 -9 10
-20 10 -12 0 -20 7 -20 16 0 20 24 44 44 44 9 0 16 8 16 20 0 11 5 20 10 20 6
0 10 9 10 20 0 13 -7 20 -20 20 -11 0 -20 5 -20 10 0 6 5 10 10 10 6 0 10 5
10 10 0 17 -232 12 -247 -5z m147 -55 c0 -5 -4 -10 -10 -10 -5 0 -10 -9 -10
-20 0 -13 -7 -20 -20 -20 -23 0 -27 23 -7 45 14 16 47 20 47 5z"/>
<path d="M2393 4045 c-7 -8 -13 -26 -13 -40 0 -14 -4 -25 -10 -25 -5 0 -10
-13 -10 -30 0 -16 -4 -30 -10 -30 -5 0 -10 -13 -10 -30 0 -16 -4 -30 -10 -30
-5 0 -10 -18 -10 -40 l0 -40 110 0 c67 0 110 4 110 10 0 6 14 10 30 10 17 0
30 5 30 10 0 6 9 10 20 10 11 0 20 -4 20 -10 0 -5 -4 -10 -10 -10 -5 0 -10 -4
-10 -10 0 -6 26 -10 58 -10 46 0 60 4 72 20 15 21 50 28 50 10 0 -5 -4 -10
-10 -10 -5 0 -10 -4 -10 -10 0 -6 26 -10 58 -10 46 0 60 4 72 20 15 21 50 28
50 10 0 -5 -4 -10 -10 -10 -5 0 -10 -4 -10 -10 0 -6 26 -10 58 -10 46 0 60 4
72 20 8 11 22 20 32 20 11 0 18 7 18 20 0 11 -4 20 -10 20 -5 0 -10 14 -10 30
0 17 5 30 10 30 6 0 10 14 10 30 0 17 5 30 10 30 15 0 12 49 -4 66 -11 10 -43
14 -126 14 -121 0 -140 -7 -140 -54 0 -14 -4 -26 -10 -26 -5 0 -10 -13 -10
-30 0 -16 -4 -30 -10 -30 -5 0 -10 -9 -10 -20 0 -13 -7 -20 -20 -20 -13 0 -20
7 -20 20 0 11 5 20 10 20 6 0 10 14 10 30 0 17 5 30 10 30 6 0 10 14 10 30 0
17 5 30 10 30 6 0 10 5 10 10 0 6 -25 10 -56 10 -62 0 -84 -14 -84 -54 0 -14
-4 -26 -10 -26 -5 0 -10 -13 -10 -30 0 -16 -4 -30 -10 -30 -5 0 -10 -9 -10
-20 0 -13 -7 -20 -20 -20 -13 0 -20 7 -20 20 0 11 5 20 10 20 6 0 10 14 10 30
0 17 5 30 10 30 6 0 10 14 10 30 0 17 5 30 10 30 6 0 10 5 10 10 0 6 -25 10
-56 10 -62 0 -84 -14 -84 -54 0 -14 -4 -26 -10 -26 -5 0 -10 -13 -10 -30 0
-16 -4 -30 -10 -30 -5 0 -10 -9 -10 -20 0 -13 -7 -20 -20 -20 -13 0 -20 7 -20
20 0 11 5 20 10 20 6 0 10 14 10 30 0 17 5 30 10 30 6 0 10 14 10 30 0 17 5
30 10 30 6 0 10 5 10 10 0 16 -113 12 -127 -5z m627 -55 c0 -5 -4 -10 -10 -10
-5 0 -10 -13 -10 -30 0 -16 -4 -30 -10 -30 -5 0 -10 -9 -10 -20 0 -13 -7 -20
-20 -20 -13 0 -20 7 -20 20 0 11 5 20 10 20 6 0 10 11 10 25 0 14 6 32 13 40
14 16 47 20 47 5z"/>
<path d="M3240 4050 c0 -5 -9 -10 -20 -10 -16 0 -20 -7 -20 -30 0 -16 -4 -30
-10 -30 -5 0 -10 -18 -10 -40 l0 -40 70 0 c40 0 70 -4 70 -10 0 -5 -22 -10
-50 -10 -27 0 -50 -4 -50 -10 0 -5 -9 -10 -20 -10 -11 0 -20 -4 -20 -10 0 -5
-9 -10 -20 -10 -13 0 -20 -7 -20 -20 0 -11 -4 -20 -10 -20 -5 0 -10 -4 -10
-10 0 -6 47 -10 120 -10 73 0 120 4 120 10 0 6 14 10 30 10 17 0 30 5 30 10 0
6 9 10 20 10 13 0 20 7 20 20 0 11 5 20 10 20 6 0 10 5 10 10 0 6 -9 10 -20
10 -13 0 -20 7 -20 20 0 11 -4 20 -10 20 -5 0 -10 9 -10 20 0 18 -7 20 -60 20
-63 0 -69 3 -46 26 10 10 38 14 90 14 69 0 76 2 76 20 0 11 5 20 10 20 6 0 10
5 10 10 0 6 -50 10 -130 10 -80 0 -130 -4 -130 -10z"/>
<path d="M980 3790 c0 -29 1 -30 50 -30 49 0 50 1 50 30 0 29 -1 30 -50 30
-49 0 -50 -1 -50 -30z"/>
<path d="M820 3680 c0 -53 2 -60 20 -60 18 0 20 7 20 60 0 53 -2 60 -20 60
-18 0 -20 -7 -20 -60z"/>
<path d="M900 3680 c0 -53 2 -60 20 -60 18 0 20 7 20 60 0 53 -2 60 -20 60
-18 0 -20 -7 -20 -60z"/>
<path d="M980 3680 l0 -60 50 0 50 0 0 60 0 60 -50 0 -50 0 0 -60z"/>
<path d="M1113 3645 c-7 -8 -13 -21 -13 -30 0 -8 -4 -15 -10 -15 -5 0 -10 -13
-10 -30 0 -16 -4 -30 -10 -30 -5 0 -10 -13 -10 -30 0 -16 -4 -30 -10 -30 -5 0
-10 -13 -10 -29 0 -16 -6 -31 -12 -33 -9 -3 -8 -9 4 -21 14 -14 38 -17 142
-17 119 0 126 1 126 20 0 11 5 20 10 20 6 0 10 5 10 10 0 6 -33 10 -80 10 -73
0 -80 2 -80 20 0 17 7 20 50 20 49 0 50 1 50 30 0 27 -3 30 -30 30 -27 0 -30
3 -30 30 l0 30 90 0 90 0 0 30 0 30 -127 0 c-98 -1 -131 -4 -140 -15z"/>
<path d="M1420 3630 c0 -16 -4 -30 -10 -30 -5 0 -10 -13 -10 -30 0 -16 -4 -30
-10 -30 -5 0 -10 -13 -10 -30 0 -16 -4 -30 -10 -30 -5 0 -10 -13 -10 -30 0
-16 -4 -30 -10 -30 -5 0 -10 -9 -10 -20 0 -19 7 -20 120 -20 73 0 120 4 120
10 0 6 7 10 16 10 23 0 44 25 44 54 0 14 5 26 10 26 6 0 10 14 10 30 0 17 5
30 10 30 6 0 10 14 10 30 0 17 5 30 10 30 6 0 10 14 10 30 l0 30 -60 0 -60 0
0 -30 c0 -16 -4 -30 -10 -30 -5 0 -10 -13 -10 -30 0 -16 -4 -30 -10 -30 -5 0
-10 -13 -10 -30 0 -16 -4 -30 -10 -30 -5 0 -10 -9 -10 -20 0 -13 -7 -20 -20
-20 -13 0 -20 7 -20 20 0 11 5 20 10 20 6 0 10 14 10 30 0 17 5 30 10 30 6 0
10 14 10 30 0 17 5 30 10 30 6 0 10 14 10 30 l0 30 -60 0 -60 0 0 -30z"/>
<path d="M1773 3645 c-7 -8 -13 -21 -13 -30 0 -8 -4 -15 -10 -15 -5 0 -10 -13
-10 -30 0 -16 -4 -30 -10 -30 -5 0 -10 -13 -10 -30 0 -16 -4 -30 -10 -30 -5 0
-10 -13 -10 -29 0 -16 -6 -31 -12 -34 -9 -3 -5 -12 12 -27 17 -15 21 -24 13
-27 -7 -3 -13 -18 -13 -34 0 -16 -4 -29 -10 -29 -5 0 -10 -9 -10 -20 0 -17 7
-20 48 -20 36 0 51 5 62 20 8 12 26 20 42 20 15 0 28 5 28 10 0 6 9 10 20 10
13 0 20 7 20 20 0 16 -7 20 -30 20 -16 0 -30 5 -30 10 0 6 27 10 60 10 53 0
60 2 60 20 0 11 5 20 10 20 6 0 10 5 10 10 0 6 -33 10 -80 10 -73 0 -80 2 -80
20 0 17 7 20 50 20 49 0 50 1 50 30 0 27 -3 30 -30 30 -27 0 -30 3 -30 30 l0
30 90 0 90 0 0 30 0 30 -127 0 c-98 -1 -131 -4 -140 -15z"/>
<path d="M2080 3630 c0 -16 -4 -30 -10 -30 -5 0 -10 -13 -10 -30 0 -16 -4 -30
-10 -30 -5 0 -10 -13 -10 -30 0 -16 -4 -30 -10 -30 -5 0 -10 -13 -10 -30 0
-16 -4 -30 -10 -30 -5 0 -10 -9 -10 -20 0 -16 7 -20 30 -20 17 0 30 5 30 10 0
6 12 10 26 10 33 0 54 21 54 54 0 19 5 26 20 26 16 0 20 -7 20 -30 0 -16 -4
-30 -10 -30 -5 0 -10 -4 -10 -10 0 -5 23 -10 50 -10 28 0 50 -4 50 -10 0 -5 5
-10 10 -10 6 0 10 9 10 20 0 11 5 20 10 20 6 0 10 14 10 30 0 17 -4 30 -10 30
-5 0 -10 14 -10 30 0 27 3 30 30 30 27 0 30 3 30 30 0 17 5 30 10 30 6 0 10 5
10 10 0 6 -9 10 -20 10 -13 0 -20 7 -20 20 0 19 -7 20 -120 20 l-120 0 0 -30z
m140 -60 c0 -23 -4 -30 -20 -30 -16 0 -20 7 -20 30 0 23 4 30 20 30 16 0 20
-7 20 -30z"/>
<path d="M2420 3630 c0 -16 -4 -30 -10 -30 -5 0 -10 -13 -10 -29 0 -16 -6 -31
-12 -33 -21 -7 17 -38 46 -38 14 0 26 -4 26 -10 0 -5 -4 -10 -10 -10 -5 0 -10
-13 -10 -30 0 -16 -4 -30 -10 -30 -5 0 -10 -9 -10 -20 0 -18 7 -20 60 -20 53
0 60 2 60 20 0 11 5 20 10 20 6 0 10 12 10 26 0 29 21 54 44 54 9 0 16 5 16
10 0 6 7 10 16 10 23 0 44 25 44 54 0 14 5 26 10 26 6 0 10 14 10 30 l0 30
-60 0 -60 0 0 -30 c0 -16 -4 -30 -10 -30 -5 0 -10 -13 -10 -30 0 -23 -4 -30
-20 -30 -16 0 -20 7 -20 30 0 17 5 30 10 30 6 0 10 14 10 30 l0 30 -60 0 -60
0 0 -30z"/>
<path d="M2740 3630 c0 -27 3 -30 30 -30 27 0 30 -3 30 -30 0 -16 -4 -30 -10
-30 -5 0 -10 -13 -10 -30 0 -16 -4 -30 -10 -30 -5 0 -10 -13 -10 -30 0 -16 -4
-30 -10 -30 -5 0 -10 -9 -10 -20 0 -18 7 -20 60 -20 53 0 60 2 60 20 0 11 5
20 10 20 6 0 10 14 10 30 0 17 5 30 10 30 6 0 10 14 10 30 0 17 5 30 10 30 6
0 10 14 10 30 0 29 1 30 50 30 49 0 50 1 50 30 l0 30 -140 0 -140 0 0 -30z"/>
<path d="M3080 3630 c0 -16 -4 -30 -10 -30 -5 0 -10 -13 -10 -30 0 -16 -4 -30
-10 -30 -5 0 -10 -13 -10 -30 0 -16 -4 -30 -10 -30 -5 0 -10 -13 -10 -30 0
-16 -4 -30 -10 -30 -5 0 -10 -9 -10 -20 0 -18 7 -20 60 -20 53 0 60 2 60 20 0
11 5 20 10 20 6 0 10 14 10 30 0 23 4 30 20 30 16 0 20 -7 20 -30 0 -16 -4
-30 -10 -30 -5 0 -10 -9 -10 -20 0 -18 7 -20 60 -20 53 0 60 2 60 20 0 11 5
20 10 20 6 0 10 14 10 30 0 17 5 30 10 30 6 0 10 14 10 30 0 17 5 30 10 30 6
0 10 14 10 30 0 17 5 30 10 30 6 0 10 14 10 30 l0 30 -60 0 -60 0 0 -30 c0
-16 -4 -30 -10 -30 -5 0 -10 -13 -10 -30 0 -23 -4 -30 -20 -30 -16 0 -20 7
-20 30 0 17 5 30 10 30 6 0 10 14 10 30 l0 30 -60 0 -60 0 0 -30z"/>
<path d="M3400 3630 c0 -16 -4 -30 -10 -30 -5 0 -10 -13 -10 -30 0 -16 -4 -30
-10 -30 -5 0 -10 -13 -10 -30 0 -16 -4 -30 -10 -30 -5 0 -10 -13 -10 -30 0
-16 -4 -30 -10 -30 -5 0 -10 -9 -10 -20 0 -18 7 -20 60 -20 53 0 60 2 60 20 0
11 5 20 10 20 6 0 10 14 10 30 0 17 5 30 10 30 6 0 10 14 10 30 0 17 5 30 10
30 6 0 10 14 10 30 0 17 5 30 10 30 6 0 10 14 10 30 l0 30 -60 0 -60 0 0 -30z"/>
<path d="M3580 3630 c0 -16 -4 -30 -10 -30 -5 0 -10 -13 -10 -30 0 -16 -4 -30
-10 -30 -5 0 -10 -13 -10 -30 0 -16 -4 -30 -10 -30 -5 0 -10 -13 -10 -30 0
-16 -4 -30 -10 -30 -5 0 -10 -9 -10 -20 0 -18 7 -20 60 -20 53 0 60 2 60 20 0
11 5 20 10 20 6 0 10 14 10 30 0 17 5 30 10 30 6 0 10 14 10 30 0 17 5 30 10
30 6 0 10 14 10 30 0 23 4 30 20 30 16 0 20 -7 20 -30 0 -16 -4 -30 -10 -30
-5 0 -10 -13 -10 -30 0 -16 -4 -30 -10 -30 -5 0 -10 -13 -10 -30 0 -16 -4 -30
-10 -30 -5 0 -10 -9 -10 -20 0 -18 7 -20 60 -20 53 0 60 2 60 20 0 11 5 20 10
20 6 0 10 14 10 30 0 17 5 30 10 30 6 0 10 14 10 30 0 17 5 30 10 30 6 0 10
14 10 30 0 17 5 30 10 30 6 0 10 9 10 20 0 13 -7 20 -20 20 -11 0 -20 5 -20
10 0 6 -47 10 -120 10 l-120 0 0 -30z"/>
<path d="M3913 3645 c-7 -8 -13 -21 -13 -30 0 -8 -4 -15 -10 -15 -5 0 -10 -13
-10 -30 0 -16 -4 -30 -10 -30 -5 0 -10 -13 -10 -30 0 -16 -4 -30 -10 -30 -5 0
-10 -13 -10 -29 0 -16 -6 -31 -12 -33 -9 -3 -8 -9 4 -21 14 -14 38 -17 142
-17 119 0 126 1 126 20 0 11 5 20 10 20 6 0 10 14 10 30 0 17 5 30 10 30 6 0
10 14 10 30 l0 30 -70 0 -70 0 0 -50 c0 -43 -3 -50 -20 -50 -13 0 -20 7 -20
20 0 11 5 20 10 20 6 0 10 14 10 30 0 17 5 30 10 30 6 0 10 14 10 30 l0 30 90
0 90 0 0 30 0 30 -127 0 c-98 -1 -131 -4 -140 -15z"/>
<path d="M440 3600 c0 -11 -4 -20 -10 -20 -6 0 -10 -127 -10 -360 0 -233 -4
-360 -10 -360 -6 0 -10 -127 -10 -360 0 -233 -4 -360 -10 -360 -6 0 -10 -127
-10 -360 0 -233 -4 -360 -10 -360 -6 0 -10 -47 -10 -120 l0 -120 50 0 c28 0
50 5 50 10 0 6 14 10 30 10 l30 0 0 60 c0 33 -4 60 -10 60 -5 0 -10 9 -10 20
0 11 5 20 10 20 6 0 10 14 10 30 0 17 5 30 10 30 6 0 10 127 10 360 0 233 4
360 10 360 6 0 10 18 10 40 l0 40 70 0 70 0 0 -310 c0 -303 0 -310 20 -310 11
0 20 5 20 10 0 6 73 10 200 10 127 0 200 4 200 10 0 6 -73 10 -200 10 -127 0
-200 4 -200 10 0 6 73 10 200 10 127 0 200 4 200 10 0 6 -73 10 -200 10 l-200
0 0 280 0 280 -150 0 c-93 0 -150 4 -150 10 0 6 57 10 150 10 93 0 150 4 150
10 0 6 -57 10 -150 10 -93 0 -150 4 -150 10 0 6 27 10 60 10 53 0 60 2 60 20
0 16 -7 20 -30 20 -16 0 -30 5 -30 10 0 6 14 10 30 10 17 0 30 5 30 10 0 6
-13 10 -30 10 -16 0 -30 5 -30 10 0 6 14 10 30 10 l30 0 0 230 c0 147 4 230
10 230 6 0 10 127 10 360 0 233 4 360 10 360 6 0 10 9 10 20 0 18 -7 20 -80
20 -73 0 -80 -2 -80 -20z m20 -1240 c0 -22 -4 -40 -10 -40 -5 0 -10 18 -10 40
0 22 5 40 10 40 6 0 10 -18 10 -40z"/>
<path d="M700 3160 l0 -220 400 0 400 0 0 -50 0 -50 -370 0 c-240 0 -370 -4
-370 -10 0 -7 170 -10 490 -10 320 0 490 3 490 10 0 6 -40 10 -100 10 -60 0
-100 4 -100 10 0 6 40 10 100 10 60 0 100 4 100 10 0 6 -40 10 -100 10 -60 0
-100 4 -100 10 0 6 47 10 120 10 l120 0 0 -40 c0 -33 3 -40 20 -40 22 0 27 15
8 23 -10 4 -9 8 2 17 11 9 12 13 3 17 -9 3 -13 32 -13 94 l0 89 -70 0 c-40 0
-70 4 -70 10 0 7 -157 10 -450 10 -293 0 -450 -3 -450 -10 0 -7 150 -10 430
-10 280 0 430 -3 430 -10 0 -5 -13 -10 -30 -10 -16 0 -30 -4 -30 -10 0 -5 23
-10 50 -10 28 0 50 -4 50 -10 0 -5 -22 -10 -50 -10 -27 0 -50 -4 -50 -10 0 -6
30 -10 70 -10 40 0 70 -4 70 -10 0 -6 -30 -10 -70 -10 -40 0 -70 -4 -70 -10 0
-6 37 -10 90 -10 53 0 90 -4 90 -10 0 -6 -40 -10 -100 -10 -93 0 -100 1 -100
20 0 20 -7 20 -400 20 -260 0 -400 4 -400 10 0 7 140 10 400 10 260 0 400 4
400 10 0 7 -140 10 -400 10 -260 0 -400 4 -400 10 0 7 140 10 400 10 260 0
400 4 400 10 0 7 -140 10 -400 10 l-400 0 0 170 c0 163 -1 170 -20 170 -19 0
-20 -7 -20 -220z"/>
<path d="M760 3360 c0 -13 7 -20 20 -20 13 0 20 7 20 20 0 13 -7 20 -20 20
-13 0 -20 -7 -20 -20z"/>
<path d="M820 3330 c0 -5 -13 -10 -30 -10 -16 0 -30 -4 -30 -10 0 -17 189 -13
206 4 8 8 14 17 14 20 0 3 -36 6 -80 6 -47 0 -80 -4 -80 -10z"/>
<path d="M2380 3330 c0 -5 18 -10 40 -10 33 0 40 -3 40 -20 0 -13 7 -20 20
-20 11 0 20 -4 20 -10 0 -5 9 -10 20 -10 12 0 20 7 20 16 0 20 24 44 44 44 9
0 16 5 16 10 0 6 -43 10 -110 10 -67 0 -110 -4 -110 -10z"/>
<path d="M2760 3320 c0 -11 -4 -20 -10 -20 -5 0 -10 -9 -10 -20 0 -18 7 -20
60 -20 53 0 60 2 60 20 0 11 5 20 10 20 6 0 10 9 10 20 0 18 -7 20 -60 20 -53
0 -60 -2 -60 -20z"/>
<path d="M3020 3320 c0 -11 -4 -20 -10 -20 -5 0 -10 -9 -10 -20 0 -18 7 -20
60 -20 53 0 60 2 60 20 0 13 7 20 20 20 13 0 20 -7 20 -20 0 -18 7 -20 60 -20
53 0 60 2 60 20 0 11 5 20 10 20 6 0 10 9 10 20 0 19 -7 20 -140 20 -133 0
-140 -1 -140 -20z"/>
<path d="M3340 3320 c0 -11 -4 -20 -10 -20 -5 0 -10 -9 -10 -20 0 -18 7 -20
60 -20 53 0 60 2 60 20 0 11 5 20 10 20 6 0 10 9 10 20 0 18 -7 20 -60 20 -53
0 -60 -2 -60 -20z"/>
<path d="M3520 3320 c0 -11 -4 -20 -10 -20 -5 0 -10 -9 -10 -20 0 -18 7 -20
60 -20 53 0 60 2 60 20 0 11 5 20 10 20 6 0 10 9 10 20 0 18 -7 20 -60 20 -53
0 -60 -2 -60 -20z"/>
<path d="M3680 3320 c0 -11 -4 -20 -10 -20 -5 0 -10 -9 -10 -20 0 -18 7 -20
60 -20 53 0 60 2 60 20 0 11 5 20 10 20 6 0 10 9 10 20 0 18 -7 20 -60 20 -53
0 -60 -2 -60 -20z"/>
<path d="M3840 3320 c0 -11 -4 -20 -10 -20 -5 0 -10 -9 -10 -20 0 -18 7 -20
60 -20 53 0 60 2 60 20 0 11 5 20 10 20 6 0 10 9 10 20 0 18 -7 20 -60 20 -53
0 -60 -2 -60 -20z"/>
<path d="M3980 3300 l0 -40 60 0 c53 0 60 2 60 20 0 11 5 20 10 20 6 0 10 9
10 20 0 18 -7 20 -70 20 l-70 0 0 -40z"/>
<path d="M1020 3290 c0 -6 -50 -10 -130 -10 -80 0 -130 -4 -130 -10 0 -6 69
-10 186 -10 147 0 188 3 200 14 8 8 14 17 14 20 0 3 -31 6 -70 6 -40 0 -70 -4
-70 -10z"/>
<path d="M1200 3250 c0 -6 -80 -10 -220 -10 -140 0 -220 -4 -220 -10 0 -6 99
-10 276 -10 225 0 278 3 290 14 8 8 14 17 14 20 0 3 -31 6 -70 6 -40 0 -70 -4
-70 -10z"/>
<path d="M1380 3210 c0 -6 -110 -10 -310 -10 -200 0 -310 -4 -310 -10 0 -6
130 -10 370 -10 240 0 370 4 370 10 0 6 9 10 20 10 11 0 20 5 20 10 0 6 -33
10 -80 10 -47 0 -80 -4 -80 -10z"/>
<path d="M1560 3170 c0 -6 -140 -10 -400 -10 -260 0 -400 -3 -400 -10 0 -7
160 -10 460 -10 300 0 460 3 460 10 0 6 9 10 20 10 11 0 20 5 20 10 0 6 -33
10 -80 10 -47 0 -80 -4 -80 -10z"/>
<path d="M760 3110 c0 -7 157 -10 450 -10 293 0 450 3 450 10 0 7 -157 10
-450 10 -293 0 -450 -3 -450 -10z"/>
<path d="M2780 3030 c0 -5 9 -10 20 -10 11 0 20 5 20 10 0 6 -9 10 -20 10 -11
0 -20 -4 -20 -10z"/>
<path d="M2860 2940 c0 -53 -2 -60 -20 -60 -11 0 -20 -4 -20 -10 0 -5 9 -10
20 -10 11 0 20 -4 20 -10 0 -5 -9 -10 -20 -10 -13 0 -20 -7 -20 -20 0 -13 -7
-20 -20 -20 -11 0 -20 -4 -20 -10 0 -6 99 -10 276 -10 225 0 278 3 290 14 8 8
14 17 14 20 0 3 -31 6 -70 6 -40 0 -70 -4 -70 -10 0 -6 -67 -10 -180 -10 -113
0 -180 4 -180 10 0 6 53 10 140 10 87 0 140 4 140 10 0 6 -47 10 -120 10 -73
0 -120 4 -120 10 0 6 123 10 350 10 227 0 350 4 350 10 0 6 -123 10 -350 10
-227 0 -350 4 -350 10 0 6 93 10 260 10 167 0 260 4 260 10 0 6 -93 10 -260
10 l-260 0 0 40 c0 33 -3 40 -20 40 -18 0 -20 -7 -20 -60z"/>
<path d="M2380 2950 c0 -5 9 -10 20 -10 11 0 20 5 20 10 0 6 -9 10 -20 10 -11
0 -20 -4 -20 -10z"/>
<path d="M2700 2950 c0 -5 9 -10 20 -10 11 0 20 5 20 10 0 6 -9 10 -20 10 -11
0 -20 -4 -20 -10z"/>
<path d="M3460 2930 c0 -5 23 -10 50 -10 28 0 50 -4 50 -10 0 -5 23 -10 50
-10 43 0 50 -3 50 -20 0 -19 7 -20 90 -20 53 0 90 -4 90 -10 0 -5 9 -10 20
-10 13 0 20 7 20 20 0 17 -7 20 -40 20 -22 0 -40 5 -40 10 0 6 -22 10 -50 10
-27 0 -50 5 -50 10 0 6 -18 10 -40 10 -22 0 -40 5 -40 10 0 6 -33 10 -80 10
-47 0 -80 -4 -80 -10z"/>
<path d="M2420 2910 c0 -5 9 -10 20 -10 11 0 20 5 20 10 0 6 -9 10 -20 10 -11
0 -20 -4 -20 -10z"/>
<path d="M2420 2870 c0 -5 9 -10 20 -10 11 0 20 5 20 10 0 6 -9 10 -20 10 -11
0 -20 -4 -20 -10z"/>
<path d="M700 2570 c0 -263 0 -270 20 -270 13 0 20 7 20 20 0 20 7 20 480 20
313 0 480 -3 480 -10 0 -7 -163 -10 -470 -10 -307 0 -470 -3 -470 -10 0 -7
163 -10 470 -10 307 0 470 -3 470 -10 0 -7 -163 -10 -470 -10 -307 0 -470 -3
-470 -10 0 -7 170 -10 490 -10 320 0 490 -3 490 -10 0 -7 -170 -10 -490 -10
-320 0 -490 -3 -490 -10 0 -7 183 -10 530 -10 347 0 530 -3 530 -10 0 -7 -183
-10 -530 -10 -347 0 -530 -3 -530 -10 0 -7 217 -10 630 -10 413 0 630 -3 630
-10 0 -7 -217 -10 -630 -10 -413 0 -630 -3 -630 -10 0 -7 223 -10 650 -10 427
0 650 -3 650 -10 0 -7 -223 -10 -650 -10 -427 0 -650 -3 -650 -10 0 -7 217
-10 630 -10 413 0 630 -3 630 -10 0 -6 -80 -10 -220 -10 -140 0 -220 -4 -220
-10 0 -6 80 -10 220 -10 140 0 220 -4 220 -10 0 -6 -80 -10 -220 -10 -140 0
-220 -4 -220 -10 0 -6 73 -10 200 -10 127 0 200 -4 200 -10 0 -6 -73 -10 -200
-10 -127 0 -200 -4 -200 -10 0 -6 70 -10 190 -10 120 0 190 -4 190 -10 0 -6
-70 -10 -190 -10 -120 0 -190 -4 -190 -10 0 -6 70 -10 190 -10 120 0 190 -4
190 -10 0 -6 -70 -10 -190 -10 -120 0 -190 -4 -190 -10 0 -6 70 -10 190 -10
120 0 190 -4 190 -10 0 -6 -70 -10 -190 -10 -120 0 -190 -4 -190 -10 0 -6 70
-10 190 -10 120 0 190 -4 190 -10 0 -6 -70 -10 -190 -10 -120 0 -190 -4 -190
-10 0 -6 70 -10 190 -10 120 0 190 -4 190 -10 0 -7 -207 -10 -600 -10 -393 0
-600 -3 -600 -10 0 -7 207 -10 600 -10 393 0 600 -3 600 -10 0 -7 -207 -10
-600 -10 -393 0 -600 -3 -600 -10 0 -7 177 -10 510 -10 333 0 510 -3 510 -10
0 -7 -177 -10 -510 -10 -333 0 -510 -3 -510 -10 0 -7 170 -10 490 -10 320 0
490 -3 490 -10 0 -6 -103 -10 -290 -10 -187 0 -290 -4 -290 -10 0 -6 103 -10
290 -10 187 0 290 -4 290 -10 0 -6 -103 -10 -290 -10 -187 0 -290 -4 -290 -10
0 -6 97 -10 270 -10 173 0 270 -4 270 -10 0 -6 -97 -10 -270 -10 -173 0 -270
-4 -270 -10 0 -6 90 -10 250 -10 160 0 250 -4 250 -10 0 -6 -93 -10 -260 -10
-253 0 -260 1 -260 20 0 13 -7 20 -20 20 -18 0 -20 -7 -20 -70 l0 -70 280 0
c180 0 280 -4 280 -10 0 -7 -157 -10 -450 -10 -293 0 -450 -3 -450 -10 0 -7
157 -10 450 -10 293 0 450 -3 450 -10 0 -7 -147 -10 -420 -10 -273 0 -420 -3
-420 -10 0 -7 147 -10 420 -10 273 0 420 -3 420 -10 0 -6 -140 -10 -400 -10
-260 0 -400 -3 -400 -10 0 -6 133 -10 380 -10 l380 0 0 -40 c0 -33 3 -40 20
-40 11 0 20 -4 20 -10 0 -5 9 -10 20 -10 11 0 20 5 20 10 0 6 127 10 360 10
233 0 360 -4 360 -10 0 -6 -113 -10 -320 -10 -207 0 -320 -4 -320 -10 0 -6
113 -10 320 -10 207 0 320 -4 320 -10 0 -6 -113 -10 -320 -10 -207 0 -320 -4
-320 -10 0 -6 120 -10 340 -10 220 0 340 -4 340 -10 0 -6 -127 -10 -360 -10
-233 0 -360 -4 -360 -10 0 -6 127 -10 360 -10 233 0 360 -4 360 -10 0 -6 -127
-10 -360 -10 -233 0 -360 -4 -360 -10 0 -6 127 -10 360 -10 233 0 360 -4 360
-10 0 -6 -140 -10 -400 -10 -260 0 -400 -3 -400 -10 0 -6 133 -10 380 -10 247
0 380 -4 380 -10 0 -7 -147 -10 -420 -10 -273 0 -420 -3 -420 -10 0 -7 147
-10 420 -10 273 0 420 -3 420 -10 0 -7 -180 -10 -520 -10 -340 0 -520 -3 -520
-10 0 -7 173 -10 500 -10 327 0 500 -3 500 -10 0 -7 -213 -10 -620 -10 -407 0
-620 -3 -620 -10 0 -7 200 -10 580 -10 380 0 580 -3 580 -10 0 -7 -203 -10
-590 -10 -387 0 -590 -3 -590 -10 0 -7 183 -10 530 -10 347 0 530 -3 530 -10
0 -6 -130 -10 -370 -10 -240 0 -370 -4 -370 -10 0 -6 117 -10 330 -10 213 0
330 -4 330 -10 0 -6 -63 -10 -170 -10 -107 0 -170 -4 -170 -10 0 -6 50 -10
130 -10 80 0 130 -4 130 -10 0 -6 -123 -10 -350 -10 -227 0 -350 4 -350 10 0
6 57 10 150 10 93 0 150 4 150 10 0 6 -110 10 -310 10 -200 0 -310 4 -310 10
0 6 57 10 150 10 93 0 150 4 150 10 0 6 -100 10 -280 10 -180 0 -280 4 -280
10 0 6 47 10 120 10 73 0 120 4 120 10 0 6 -47 10 -120 10 l-120 0 0 40 c0 33
-3 40 -20 40 -18 0 -20 -7 -20 -70 0 -63 2 -70 20 -70 11 0 20 -4 20 -10 0 -6
33 -10 80 -10 47 0 80 -4 80 -10 0 -6 33 -10 80 -10 47 0 80 -4 80 -10 0 -6
33 -10 80 -10 47 0 80 -4 80 -10 0 -6 33 -10 80 -10 47 0 80 -4 80 -10 0 -6
33 -10 80 -10 47 0 80 -4 80 -10 0 -6 33 -10 80 -10 47 0 80 -4 80 -10 0 -6
33 -10 80 -10 47 0 80 -4 80 -10 0 -6 33 -10 80 -10 47 0 80 -4 80 -10 0 -6
33 -10 80 -10 47 0 80 -4 80 -10 0 -6 33 -10 80 -10 47 0 80 -4 80 -10 0 -6
-140 -10 -400 -10 -260 0 -400 -3 -400 -10 0 -6 33 -10 80 -10 47 0 80 -4 80
-10 0 -6 33 -10 80 -10 47 0 80 -4 80 -10 0 -7 197 -10 570 -10 373 0 570 -3
570 -10 0 -6 33 -10 80 -10 47 0 80 -4 80 -10 0 -6 33 -10 80 -10 47 0 80 -4
80 -10 0 -6 33 -10 80 -10 47 0 80 -4 80 -10 0 -6 33 -10 80 -10 47 0 80 -4
80 -10 0 -6 33 -10 80 -10 47 0 80 -4 80 -10 0 -6 33 -10 80 -10 47 0 80 -4
80 -10 0 -6 33 -10 80 -10 47 0 80 -4 80 -10 0 -6 30 -10 70 -10 l70 0 0 40
c0 22 -4 40 -10 40 -5 0 -10 -4 -10 -10 0 -6 -67 -10 -180 -10 -113 0 -180 4
-180 10 0 6 63 10 170 10 107 0 170 4 170 10 0 6 -117 10 -330 10 -213 0 -330
4 -330 10 0 6 63 10 170 10 107 0 170 4 170 10 0 6 -80 10 -220 10 -213 0
-220 1 -220 20 0 13 -7 20 -20 20 -16 0 -20 7 -20 30 l0 30 360 0 c233 0 360
4 360 10 0 6 -127 10 -360 10 -233 0 -360 4 -360 10 0 7 143 10 410 10 267 0
410 -3 410 -10 0 -5 -9 -10 -20 -10 -11 0 -20 -4 -20 -10 0 -5 9 -10 20 -10
11 0 20 -4 20 -10 0 -5 5 -10 10 -10 6 0 10 80 10 220 l0 220 60 0 c33 0 60 4
60 10 0 6 -27 10 -60 10 l-60 0 0 180 0 180 30 0 c17 0 30 5 30 10 0 7 -170
10 -490 10 -320 0 -490 3 -490 10 0 7 170 10 490 10 320 0 490 3 490 10 0 7
-170 10 -490 10 -320 0 -490 3 -490 10 0 7 170 10 490 10 320 0 490 3 490 10
0 7 -177 10 -510 10 -333 0 -510 3 -510 10 0 7 213 10 620 10 407 0 620 3 620
10 0 6 -53 10 -140 10 l-140 0 0 310 c0 200 -4 310 -10 310 -5 0 -10 -4 -10
-10 0 -14 -38 -12 -43 3 -2 6 -8 8 -13 4 -5 -4 -2 -12 6 -18 13 -8 13 -10 0
-19 -13 -9 -13 -11 0 -20 13 -9 13 -11 1 -19 -12 -8 -12 -12 2 -25 8 -9 23
-16 31 -16 9 0 16 -4 16 -10 0 -5 -9 -10 -20 -10 -11 0 -20 -4 -20 -10 0 -5 9
-10 20 -10 11 0 20 -4 20 -10 0 -5 -9 -10 -20 -10 -11 0 -20 -4 -20 -10 0 -5
9 -10 20 -10 11 0 20 -4 20 -10 0 -5 -9 -10 -20 -10 -11 0 -20 -4 -20 -10 0
-5 9 -10 20 -10 11 0 20 -4 20 -10 0 -5 -9 -10 -20 -10 -11 0 -20 -4 -20 -10
0 -5 9 -10 20 -10 11 0 20 -4 20 -10 0 -5 -9 -10 -20 -10 -11 0 -20 -4 -20
-10 0 -5 9 -10 20 -10 11 0 20 -4 20 -10 0 -5 -9 -10 -20 -10 -11 0 -20 -4
-20 -10 0 -5 9 -10 20 -10 11 0 20 -4 20 -10 0 -5 -9 -10 -20 -10 -11 0 -20
-4 -20 -10 0 -5 9 -10 20 -10 11 0 20 -4 20 -10 0 -5 -9 -10 -20 -10 -11 0
-20 -4 -20 -10 0 -5 9 -10 20 -10 11 0 20 -4 20 -10 0 -5 -9 -10 -20 -10 -11
0 -20 -4 -20 -10 0 -5 9 -10 20 -10 11 0 20 -4 20 -10 0 -5 -9 -10 -20 -10
-11 0 -20 -4 -20 -10 0 -5 9 -10 20 -10 11 0 20 -4 20 -10 0 -5 -9 -10 -20
-10 -11 0 -20 -4 -20 -10 0 -5 9 -10 20 -10 11 0 20 -4 20 -10 0 -5 -9 -10
-20 -10 -11 0 -20 -4 -20 -10 0 -5 9 -10 20 -10 11 0 20 -4 20 -10 0 -7 -163
-10 -470 -10 -307 0 -470 3 -470 10 0 7 147 10 420 10 273 0 420 3 420 10 0 7
-147 10 -420 10 -273 0 -420 3 -420 10 0 7 147 10 420 10 273 0 420 3 420 10
0 7 -153 10 -440 10 -287 0 -440 3 -440 10 0 7 153 10 440 10 287 0 440 3 440
10 0 7 -153 10 -440 10 -287 0 -440 3 -440 10 0 7 153 10 440 10 287 0 440 3
440 10 0 7 -153 10 -440 10 -287 0 -440 3 -440 10 0 7 153 10 440 10 287 0
440 3 440 10 0 7 -160 10 -460 10 -300 0 -460 3 -460 10 0 6 50 10 130 10 80
0 130 4 130 10 0 6 -50 10 -130 10 -80 0 -130 4 -130 10 0 6 70 10 190 10 120
0 190 -4 190 -10 0 -5 -9 -10 -20 -10 -11 0 -20 -4 -20 -10 0 -5 9 -10 20 -10
11 0 20 5 20 10 0 6 9 10 20 10 11 0 20 5 20 10 0 6 -9 10 -20 10 -11 0 -20 5
-20 10 0 6 42 10 106 10 109 0 134 8 134 44 0 14 21 16 160 16 100 0 160 4
160 10 0 6 -60 10 -160 10 -100 0 -160 -4 -160 -10 0 -5 -22 -10 -50 -10 -27
0 -50 -4 -50 -10 0 -5 9 -10 20 -10 11 0 20 -4 20 -10 0 -6 -37 -10 -90 -10
-53 0 -90 4 -90 10 0 6 14 10 30 10 17 0 30 5 30 10 0 6 -13 10 -30 10 -16 0
-30 5 -30 10 0 6 37 10 90 10 53 0 90 4 90 10 0 6 -37 10 -90 10 -53 0 -90 4
-90 10 0 6 47 10 120 10 73 0 120 -4 120 -10 0 -5 9 -10 20 -10 11 0 20 5 20
10 0 6 -9 10 -20 10 -11 0 -20 5 -20 10 0 6 60 10 160 10 100 0 160 4 160 10
0 6 -60 10 -160 10 -100 0 -160 4 -160 10 0 6 -47 10 -120 10 -73 0 -120 -4
-120 -10 0 -6 47 -10 120 -10 73 0 120 -4 120 -10 0 -6 -47 -10 -120 -10 -73
0 -120 -4 -120 -10 0 -6 -90 -10 -250 -10 -160 0 -250 4 -250 10 0 6 87 10
240 10 153 0 240 4 240 10 0 6 -87 10 -240 10 -153 0 -240 4 -240 10 0 6 87
10 240 10 153 0 240 4 240 10 0 6 -87 10 -240 10 -153 0 -240 4 -240 10 0 6
87 10 240 10 153 0 240 4 240 10 0 6 27 10 60 10 53 0 60 -2 60 -20 0 -18 7
-20 70 -20 40 0 70 -4 70 -10 0 -15 29 -12 46 4 8 8 14 22 14 30 0 13 14 16
80 16 73 0 80 2 80 20 0 13 -7 20 -20 20 -11 0 -20 5 -20 10 0 6 9 10 20 10
11 0 20 -4 20 -10 0 -5 9 -10 20 -10 13 0 20 7 20 20 0 19 -7 20 -100 20 -93
0 -100 -1 -100 -20 0 -19 -7 -20 -120 -20 -113 0 -120 1 -120 20 0 13 -7 20
-20 20 -13 0 -20 7 -20 20 0 19 -7 20 -100 20 l-100 0 0 40 c0 33 -3 40 -20
40 -11 0 -20 5 -20 10 0 6 9 10 20 10 11 0 20 5 20 10 0 6 -40 10 -100 10
l-100 0 0 -40 0 -40 -40 0 -40 0 0 110 0 110 220 0 c140 0 220 -4 220 -10 0
-6 -53 -10 -140 -10 -87 0 -140 -4 -140 -10 0 -6 53 -10 140 -10 87 0 140 -4
140 -10 0 -6 -40 -10 -100 -10 -60 0 -100 -4 -100 -10 0 -6 40 -10 100 -10 60
0 100 -4 100 -10 0 -6 -27 -10 -60 -10 -33 0 -60 -4 -60 -10 0 -6 27 -10 60
-10 33 0 60 -4 60 -10 0 -5 -9 -10 -20 -10 -11 0 -20 -4 -20 -10 0 -5 9 -10
20 -10 11 0 20 5 20 10 0 6 33 10 80 10 47 0 80 -4 80 -10 0 -5 9 -10 20 -10
13 0 20 7 20 20 0 19 -7 20 -100 20 -60 0 -100 4 -100 10 0 6 40 10 100 10 60
0 100 4 100 10 0 6 -40 10 -100 10 -60 0 -100 4 -100 10 0 6 40 10 100 10 60
0 100 4 100 10 0 6 -40 10 -100 10 -60 0 -100 4 -100 10 0 6 40 10 100 10 60
0 100 4 100 10 0 6 23 10 50 10 28 0 50 5 50 10 0 6 53 10 140 10 87 0 140 -4
140 -10 0 -5 18 -10 40 -10 22 0 40 -4 40 -10 0 -5 -9 -10 -20 -10 -11 0 -20
-4 -20 -10 0 -5 9 -10 20 -10 11 0 20 -4 20 -10 0 -5 -9 -10 -20 -10 -11 0
-20 -4 -20 -10 0 -5 9 -10 20 -10 11 0 20 -4 20 -10 0 -5 -9 -10 -20 -10 -11
0 -20 -4 -20 -10 0 -5 9 -10 20 -10 11 0 20 -4 20 -10 0 -5 -22 -10 -50 -10
l-50 0 0 40 0 40 -140 0 c-133 0 -140 -1 -140 -20 0 -17 7 -20 40 -20 l40 0 0
-60 0 -60 40 0 c33 0 40 3 40 20 0 13 -7 20 -20 20 -11 0 -20 5 -20 10 0 6 9
10 20 10 11 0 20 -4 20 -10 0 -6 37 -10 90 -10 80 0 114 -10 77 -23 -7 -2 -8
-8 -3 -13 5 -5 11 -4 13 4 3 6 18 12 34 12 l29 0 0 160 0 160 -30 0 c-16 0
-30 -4 -30 -10 0 -6 -67 -10 -180 -10 -113 0 -180 -4 -180 -10 0 -6 73 -10
200 -10 127 0 200 -4 200 -10 0 -5 -18 -10 -40 -10 -22 0 -40 -4 -40 -10 0 -6
-53 -10 -140 -10 -87 0 -140 4 -140 10 0 6 -9 10 -20 10 -11 0 -20 -4 -20 -10
0 -5 9 -10 20 -10 11 0 20 -4 20 -10 0 -5 -22 -10 -50 -10 -27 0 -50 5 -50 10
0 6 -40 10 -100 10 -60 0 -100 4 -100 10 0 6 37 10 90 10 53 0 90 4 90 10 0 6
-37 10 -90 10 -53 0 -90 4 -90 10 0 6 -120 10 -340 10 -220 0 -340 4 -340 10
0 6 123 10 350 10 227 0 350 4 350 10 0 6 -130 10 -370 10 -240 0 -370 4 -370
10 0 6 130 10 370 10 240 0 370 4 370 10 0 6 -130 10 -370 10 -240 0 -370 4
-370 10 0 6 130 10 370 10 l370 0 0 30 c0 27 -3 30 -30 30 -16 0 -30 5 -30 10
0 6 -30 10 -70 10 -40 0 -70 -4 -70 -10 0 -6 -123 -10 -350 -10 l-350 0 0 -40
c0 -33 -3 -40 -20 -40 -11 0 -20 -4 -20 -10 0 -5 9 -10 20 -10 11 0 20 -4 20
-10 0 -5 -9 -10 -20 -10 -11 0 -20 -4 -20 -10 0 -5 9 -10 20 -10 11 0 20 -4
20 -10 0 -5 -9 -10 -20 -10 -13 0 -20 -7 -20 -20 0 -13 -7 -20 -20 -20 -17 0
-20 -7 -20 -40 0 -33 -3 -40 -20 -40 -17 0 -20 -7 -20 -40 0 -33 -3 -40 -20
-40 -17 0 -20 -7 -20 -40 0 -33 -3 -40 -20 -40 -11 0 -20 -4 -20 -10 0 -5 9
-10 20 -10 11 0 20 5 20 10 0 6 9 10 20 10 18 0 20 -7 20 -80 0 -73 -2 -80
-20 -80 -11 0 -20 -4 -20 -10 0 -5 18 -10 40 -10 22 0 40 -4 40 -10 0 -5 9
-10 20 -10 13 0 20 -7 20 -20 0 -13 7 -20 20 -20 17 0 20 -7 20 -40 0 -33 3
-40 20 -40 17 0 20 -7 20 -50 0 -43 3 -50 20 -50 18 0 20 -7 20 -60 0 -53 2
-60 20 -60 17 0 20 7 20 40 l0 40 40 0 c22 0 40 -4 40 -10 0 -5 9 -10 20 -10
13 0 20 -7 20 -20 0 -13 7 -20 20 -20 16 0 20 -7 20 -30 0 -23 4 -30 20 -30
17 0 20 -7 20 -50 l0 -50 -40 0 c-22 0 -40 -4 -40 -10 0 -5 18 -10 40 -10 22
0 40 -4 40 -10 0 -5 -18 -10 -40 -10 -22 0 -40 -4 -40 -10 0 -5 18 -10 40 -10
22 0 40 -4 40 -10 0 -6 -33 -10 -80 -10 -47 0 -80 -4 -80 -10 0 -6 33 -10 80
-10 47 0 80 -4 80 -10 0 -6 -47 -10 -120 -10 -113 0 -120 1 -120 20 0 13 -7
20 -20 20 -17 0 -20 7 -20 40 0 33 -3 40 -20 40 -13 0 -20 7 -20 20 0 13 -7
20 -20 20 -17 0 -20 7 -20 40 0 33 -3 40 -20 40 -17 0 -20 7 -20 40 0 33 -3
40 -20 40 -13 0 -20 7 -20 20 0 13 -7 20 -20 20 -11 0 -20 5 -20 10 0 6 9 10
20 10 11 0 20 5 20 10 0 6 -9 10 -20 10 -13 0 -20 7 -20 20 0 13 -7 20 -20 20
-13 0 -20 7 -20 20 0 13 -7 20 -20 20 -13 0 -20 7 -20 20 0 13 -7 20 -20 20
-13 0 -20 7 -20 20 0 17 -7 20 -40 20 -22 0 -40 5 -40 10 0 6 9 10 20 10 11 0
20 5 20 10 0 6 9 10 20 10 13 0 20 7 20 20 0 17 7 20 40 20 l40 0 0 40 0 40
-80 0 c-47 0 -80 4 -80 10 0 6 9 10 20 10 11 0 20 5 20 10 0 6 -27 10 -60 10
-33 0 -60 4 -60 10 0 6 18 10 40 10 38 0 40 2 40 30 0 23 -4 30 -20 30 -11 0
-20 5 -20 10 0 6 27 10 60 10 33 0 60 4 60 10 0 6 -27 10 -60 10 -33 0 -60 4
-60 10 0 6 9 10 20 10 16 0 20 7 20 30 0 23 -4 30 -20 30 -13 0 -20 7 -20 20
0 13 -7 20 -20 20 -11 0 -20 5 -20 10 0 6 9 10 20 10 11 0 20 5 20 10 0 6 -9
10 -20 10 -18 0 -20 7 -20 60 0 53 -2 60 -20 60 -19 0 -20 -7 -20 -100 0 -93
1 -100 20 -100 17 0 20 -7 20 -40 l0 -40 -60 0 -60 0 0 80 c0 73 -2 80 -20 80
-19 0 -20 -7 -20 -120 0 -113 -1 -120 -20 -120 -13 0 -20 7 -20 20 0 13 -7 20
-20 20 -17 0 -20 7 -20 40 0 33 -3 40 -20 40 -17 0 -20 7 -20 40 0 33 -3 40
-20 40 -13 0 -20 7 -20 20 0 19 -7 20 -140 20 -87 0 -140 4 -140 10 0 6 53 10
140 10 87 0 140 4 140 10 0 6 -60 10 -160 10 -100 0 -160 4 -160 10 0 6 60 10
160 10 100 0 160 4 160 10 0 6 -67 10 -180 10 -113 0 -180 4 -180 10 0 6 60
10 160 10 100 0 160 4 160 10 0 7 -197 10 -570 10 -373 0 -570 -3 -570 -10 0
-6 137 -10 390 -10 253 0 390 -4 390 -10 0 -5 -18 -10 -40 -10 -22 0 -40 -4
-40 -10 0 -5 18 -10 40 -10 22 0 40 -4 40 -10 0 -5 -18 -10 -40 -10 -22 0 -40
-4 -40 -10 0 -6 27 -10 60 -10 33 0 60 -4 60 -10 0 -7 -143 -10 -410 -10 -267
0 -410 -3 -410 -10 0 -6 123 -10 350 -10 227 0 350 -4 350 -10 0 -6 -123 -10
-350 -10 -227 0 -350 -4 -350 -10 0 -6 123 -10 350 -10 227 0 350 -4 350 -10
0 -6 -123 -10 -350 -10 -227 0 -350 -4 -350 -10 0 -6 117 -10 330 -10 213 0
330 -4 330 -10 0 -6 -117 -10 -330 -10 -213 0 -330 -4 -330 -10 0 -6 110 -10
310 -10 200 0 310 -4 310 -10 0 -6 -113 -10 -320 -10 l-320 0 0 220 c0 213 -1
220 -20 220 -20 0 -20 -7 -20 -270z m2080 160 c0 -5 -9 -10 -20 -10 -11 0 -20
5 -20 10 0 6 9 10 20 10 11 0 20 -4 20 -10z m800 0 c0 -6 -127 -10 -360 -10
-233 0 -360 4 -360 10 0 6 127 10 360 10 233 0 360 -4 360 -10z m0 -160 c0 -6
-107 -10 -300 -10 -193 0 -300 4 -300 10 0 6 107 10 300 10 193 0 300 -4 300
-10z m-1720 -40 c0 -6 -33 -10 -80 -10 -47 0 -80 4 -80 10 0 6 33 10 80 10 47
0 80 -4 80 -10z m1720 0 c0 -6 40 -10 100 -10 60 0 100 -4 100 -10 0 -6 -40
-10 -100 -10 -60 0 -100 4 -100 10 0 6 -87 10 -240 10 -153 0 -240 4 -240 10
0 6 87 10 240 10 153 0 240 -4 240 -10z m660 0 c0 -5 -18 -10 -40 -10 -22 0
-40 5 -40 10 0 6 18 10 40 10 22 0 40 -4 40 -10z m-2300 -40 c0 -6 -33 -10
-80 -10 -47 0 -80 4 -80 10 0 6 33 10 80 10 47 0 80 -4 80 -10z m-300 -40 c0
-6 -30 -10 -70 -10 -40 0 -70 4 -70 10 0 6 30 10 70 10 40 0 70 -4 70 -10z
m300 0 c0 -6 -30 -10 -70 -10 -40 0 -70 4 -70 10 0 6 30 10 70 10 40 0 70 -4
70 -10z m-300 -40 c0 -6 -30 -10 -70 -10 -40 0 -70 4 -70 10 0 6 30 10 70 10
40 0 70 -4 70 -10z m300 0 c0 -6 -30 -10 -70 -10 -40 0 -70 4 -70 10 0 6 30
10 70 10 40 0 70 -4 70 -10z m-560 -40 c0 -6 -113 -10 -320 -10 -207 0 -320 4
-320 10 0 6 113 10 320 10 207 0 320 -4 320 -10z m260 0 c0 -6 -30 -10 -70
-10 -40 0 -70 4 -70 10 0 6 30 10 70 10 40 0 70 -4 70 -10z m300 0 c0 -6 -30
-10 -70 -10 -40 0 -70 4 -70 10 0 6 30 10 70 10 40 0 70 -4 70 -10z m320 0 c0
-5 -18 -10 -40 -10 -22 0 -40 5 -40 10 0 6 18 10 40 10 22 0 40 -4 40 -10z m0
-40 c0 -5 -9 -10 -20 -10 -11 0 -20 5 -20 10 0 6 9 10 20 10 11 0 20 -4 20
-10z m1980 0 c0 -5 -4 -10 -10 -10 -5 0 -10 5 -10 10 0 6 5 10 10 10 6 0 10
-4 10 -10z m-1020 -80 c0 -6 -27 -10 -60 -10 -33 0 -60 4 -60 10 0 6 27 10 60
10 33 0 60 -4 60 -10z m-1240 -40 c0 -5 -9 -10 -20 -10 -11 0 -20 5 -20 10 0
6 9 10 20 10 11 0 20 -4 20 -10z m1200 0 c0 -6 -33 -10 -80 -10 -47 0 -80 4
-80 10 0 6 33 10 80 10 47 0 80 -4 80 -10z m240 -40 c0 -6 -73 -10 -200 -10
-127 0 -200 4 -200 10 0 6 73 10 200 10 127 0 200 -4 200 -10z m820 0 c0 -5
-9 -10 -20 -10 -11 0 -20 5 -20 10 0 6 9 10 20 10 11 0 20 -4 20 -10z m-660
-40 c0 -6 -93 -10 -260 -10 -167 0 -260 4 -260 10 0 6 93 10 260 10 167 0 260
-4 260 -10z m660 0 c0 -5 -9 -10 -20 -10 -11 0 -20 5 -20 10 0 6 9 10 20 10
11 0 20 -4 20 -10z m-640 -160 c0 -6 -83 -10 -230 -10 -147 0 -230 4 -230 10
0 6 83 10 230 10 147 0 230 -4 230 -10z m0 -40 c0 -6 -83 -10 -230 -10 -147 0
-230 4 -230 10 0 6 83 10 230 10 147 0 230 -4 230 -10z m0 -40 c0 -6 -77 -10
-210 -10 -133 0 -210 4 -210 10 0 6 77 10 210 10 133 0 210 -4 210 -10z
m-1940 -360 c0 -6 -93 -10 -260 -10 -167 0 -260 4 -260 10 0 6 93 10 260 10
167 0 260 -4 260 -10z m480 0 c0 -5 -9 -10 -20 -10 -11 0 -20 5 -20 10 0 6 9
10 20 10 11 0 20 -4 20 -10z m-480 -40 c0 -6 -93 -10 -260 -10 -167 0 -260 4
-260 10 0 6 93 10 260 10 167 0 260 -4 260 -10z m520 0 c0 -6 -27 -10 -60 -10
-33 0 -60 4 -60 10 0 6 27 10 60 10 33 0 60 -4 60 -10z m840 0 c0 -6 -47 -10
-120 -10 -73 0 -120 4 -120 10 0 6 47 10 120 10 73 0 120 -4 120 -10z m-800
-40 c0 -6 -40 -10 -100 -10 -60 0 -100 4 -100 10 0 6 40 10 100 10 60 0 100
-4 100 -10z m800 0 c0 -6 -40 -10 -100 -10 -60 0 -100 4 -100 10 0 6 40 10
100 10 60 0 100 -4 100 -10z m1220 0 c0 -5 -9 -10 -20 -10 -11 0 -20 -4 -20
-10 0 -5 9 -10 20 -10 11 0 20 -4 20 -10 0 -5 -9 -10 -20 -10 -11 0 -20 -4
-20 -10 0 -5 9 -10 20 -10 11 0 20 -4 20 -10 0 -5 -9 -10 -20 -10 -11 0 -20
-4 -20 -10 0 -5 9 -10 20 -10 11 0 20 -4 20 -10 0 -5 -9 -10 -20 -10 -11 0
-20 -4 -20 -10 0 -5 9 -10 20 -10 11 0 20 -4 20 -10 0 -5 -9 -10 -20 -10 -11
0 -20 -4 -20 -10 0 -5 9 -10 20 -10 11 0 20 -4 20 -10 0 -5 -9 -10 -20 -10
-11 0 -20 -4 -20 -10 0 -5 9 -10 20 -10 11 0 20 -4 20 -10 0 -5 -9 -10 -20
-10 -11 0 -20 -4 -20 -10 0 -5 9 -10 20 -10 11 0 20 -4 20 -10 0 -5 -9 -10
-20 -10 -11 0 -20 -4 -20 -10 0 -5 9 -10 20 -10 11 0 20 -4 20 -10 0 -5 -9
-10 -20 -10 -11 0 -20 -4 -20 -10 0 -5 9 -10 20 -10 11 0 20 -4 20 -10 0 -5
-9 -10 -20 -10 -11 0 -20 -4 -20 -10 0 -5 9 -10 20 -10 11 0 20 -4 20 -10 0
-5 -9 -10 -20 -10 -11 0 -20 -4 -20 -10 0 -5 9 -10 20 -10 11 0 20 -4 20 -10
0 -5 -9 -10 -20 -10 -11 0 -20 -4 -20 -10 0 -5 9 -10 20 -10 11 0 20 -4 20
-10 0 -5 -9 -10 -20 -10 -11 0 -20 -4 -20 -10 0 -5 9 -10 20 -10 11 0 20 -4
20 -10 0 -5 -9 -10 -20 -10 -11 0 -20 -4 -20 -10 0 -5 9 -10 20 -10 11 0 20
-4 20 -10 0 -5 -9 -10 -20 -10 -11 0 -20 -4 -20 -10 0 -5 9 -10 20 -10 11 0
20 -4 20 -10 0 -5 -9 -10 -20 -10 -11 0 -20 -4 -20 -10 0 -5 9 -10 20 -10 11
0 20 -4 20 -10 0 -5 -9 -10 -20 -10 -11 0 -20 -4 -20 -10 0 -5 9 -10 20 -10
11 0 20 -4 20 -10 0 -5 -9 -10 -20 -10 -11 0 -20 -4 -20 -10 0 -5 9 -10 20
-10 11 0 20 -4 20 -10 0 -7 -143 -10 -410 -10 -267 0 -410 3 -410 10 0 6 127
10 360 10 233 0 360 4 360 10 0 6 -127 10 -360 10 -233 0 -360 4 -360 10 0 6
127 10 360 10 233 0 360 4 360 10 0 6 -127 10 -360 10 -233 0 -360 4 -360 10
0 6 127 10 360 10 233 0 360 4 360 10 0 6 -127 10 -360 10 -233 0 -360 4 -360
10 0 6 127 10 360 10 233 0 360 4 360 10 0 6 -127 10 -360 10 -233 0 -360 4
-360 10 0 6 127 10 360 10 233 0 360 4 360 10 0 6 -127 10 -360 10 -233 0
-360 4 -360 10 0 6 127 10 360 10 233 0 360 4 360 10 0 6 -127 10 -360 10
-233 0 -360 4 -360 10 0 6 127 10 360 10 233 0 360 4 360 10 0 6 -133 10 -380
10 l-380 0 0 -40 c0 -33 -3 -40 -20 -40 -11 0 -20 -4 -20 -10 0 -5 9 -10 20
-10 11 0 20 -4 20 -10 0 -5 -9 -10 -20 -10 -13 0 -20 -7 -20 -20 0 -13 -7 -20
-20 -20 -13 0 -20 -7 -20 -20 0 -17 -7 -20 -40 -20 -22 0 -40 -4 -40 -10 0 -5
9 -10 20 -10 11 0 20 -4 20 -10 0 -5 -18 -10 -40 -10 -33 0 -40 -3 -40 -20 0
-18 -7 -20 -60 -20 -33 0 -60 -4 -60 -10 0 -5 9 -10 20 -10 11 0 20 -4 20 -10
0 -6 -67 -10 -180 -10 -173 0 -180 1 -180 20 0 13 -7 20 -20 20 -13 0 -20 7
-20 20 0 17 -7 20 -40 20 -22 0 -40 5 -40 10 0 6 18 10 40 10 22 0 40 5 40 10
0 6 -27 10 -60 10 -33 0 -60 4 -60 10 0 6 27 10 60 10 33 0 60 4 60 10 0 6
-33 10 -80 10 -47 0 -80 4 -80 10 0 6 33 10 80 10 47 0 80 4 80 10 0 6 -33 10
-80 10 -47 0 -80 4 -80 10 0 6 40 10 100 10 60 0 100 4 100 10 0 6 -9 10 -20
10 -11 0 -20 5 -20 10 0 6 9 10 20 10 11 0 20 5 20 10 0 6 9 10 20 10 11 0 20
5 20 10 0 6 18 10 40 10 22 0 40 5 40 10 0 6 -9 10 -20 10 -11 0 -20 5 -20 10
0 6 9 10 20 10 13 0 20 7 20 20 0 13 7 20 20 20 16 0 20 7 20 30 0 23 4 30 20
30 18 0 20 7 20 70 l0 70 40 0 40 0 0 -50 0 -50 40 0 c33 0 40 -3 40 -20 0
-18 7 -20 60 -20 53 0 60 2 60 20 0 17 7 20 40 20 22 0 40 -4 40 -10 0 -7 147
-10 420 -10 273 0 420 3 420 10 0 7 -140 10 -400 10 -260 0 -400 4 -400 10 0
7 140 10 400 10 260 0 400 4 400 10 0 7 -140 10 -400 10 -260 0 -400 4 -400
10 0 7 140 10 400 10 260 0 400 4 400 10 0 7 -140 10 -400 10 -260 0 -400 4
-400 10 0 7 140 10 400 10 260 0 400 4 400 10 0 7 -140 10 -400 10 -260 0
-400 4 -400 10 0 7 140 10 400 10 260 0 400 4 400 10 0 7 -140 10 -400 10
-260 0 -400 4 -400 10 0 7 140 10 400 10 260 0 400 4 400 10 0 7 -140 10 -400
10 -260 0 -400 4 -400 10 0 7 140 10 400 10 260 0 400 4 400 10 0 7 -140 10
-400 10 -260 0 -400 4 -400 10 0 7 140 10 400 10 260 0 400 4 400 10 0 7 -140
10 -400 10 -260 0 -400 4 -400 10 0 7 157 10 450 10 293 0 450 -3 450 -10z
m-1980 -40 c0 -6 -47 -10 -120 -10 -73 0 -120 4 -120 10 0 6 47 10 120 10 73
0 120 -4 120 -10z m760 0 c0 -6 -33 -10 -80 -10 -47 0 -80 4 -80 10 0 6 33 10
80 10 47 0 80 -4 80 -10z m-720 -40 c0 -6 -60 -10 -160 -10 -100 0 -160 4
-160 10 0 6 60 10 160 10 100 0 160 -4 160 -10z m720 0 c0 -6 -33 -10 -80 -10
-47 0 -80 4 -80 10 0 6 33 10 80 10 47 0 80 -4 80 -10z m-680 -40 c0 -6 -73
-10 -200 -10 -127 0 -200 4 -200 10 0 6 73 10 200 10 127 0 200 -4 200 -10z
m680 -20 c0 -28 -2 -30 -40 -30 -22 0 -40 5 -40 10 0 6 9 10 20 10 11 0 20 5
20 10 0 6 -9 10 -20 10 -11 0 -20 5 -20 10 0 6 18 10 40 10 38 0 40 -2 40 -30z
m-1240 -20 c0 -5 -18 -10 -40 -10 -22 0 -40 5 -40 10 0 6 18 10 40 10 22 0 40
-4 40 -10z m600 0 c0 -6 -87 -10 -240 -10 -153 0 -240 4 -240 10 0 6 87 10
240 10 153 0 240 -4 240 -10z m-440 -520 c0 -6 -57 -10 -150 -10 -93 0 -150 4
-150 10 0 6 57 10 150 10 93 0 150 -4 150 -10z m120 -40 c0 -5 -22 -10 -50
-10 -27 0 -50 5 -50 10 0 6 23 10 50 10 28 0 50 -4 50 -10z m320 -40 c0 -5
-22 -10 -50 -10 -27 0 -50 5 -50 10 0 6 23 10 50 10 28 0 50 -4 50 -10z m320
-40 c0 -5 -22 -10 -50 -10 -27 0 -50 5 -50 10 0 6 23 10 50 10 28 0 50 -4 50
-10z m240 0 c0 -5 -18 -10 -40 -10 -22 0 -40 5 -40 10 0 6 18 10 40 10 22 0
40 -4 40 -10z m80 -40 c0 -7 -183 -10 -530 -10 -347 0 -530 3 -530 10 0 7 183
10 530 10 347 0 530 -3 530 -10z m320 -40 c0 -5 -22 -10 -50 -10 -27 0 -50 5
-50 10 0 6 23 10 50 10 28 0 50 -4 50 -10z m900 -120 c0 -5 -9 -10 -20 -10
-11 0 -20 5 -20 10 0 6 9 10 20 10 11 0 20 -4 20 -10z"/>
<path d="M3340 1110 c0 -6 140 -10 400 -10 260 0 400 4 400 10 0 7 -140 10
-400 10 -260 0 -400 -3 -400 -10z"/>
<path d="M3380 1070 c0 -6 133 -10 380 -10 247 0 380 4 380 10 0 6 -133 10
-380 10 -247 0 -380 -4 -380 -10z"/>
<path d="M3380 1030 c0 -6 133 -10 380 -10 247 0 380 4 380 10 0 6 -133 10
-380 10 -247 0 -380 -4 -380 -10z"/>
<path d="M2340 2830 c0 -5 9 -10 20 -10 11 0 20 -4 20 -10 0 -5 -9 -10 -20
-10 -17 0 -20 -7 -20 -40 0 -33 3 -40 20 -40 13 0 20 -7 20 -20 0 -18 7 -20
60 -20 53 0 60 2 60 20 0 13 -7 20 -20 20 -13 0 -20 7 -20 20 0 13 7 20 20 20
11 0 20 -4 20 -10 0 -5 9 -10 20 -10 11 0 20 5 20 10 0 6 -9 10 -20 10 -13 0
-20 7 -20 20 0 13 7 20 20 20 11 0 20 5 20 10 0 6 9 10 20 10 11 0 20 5 20 10
0 6 -47 10 -120 10 -73 0 -120 -4 -120 -10z"/>
<path d="M2620 2830 c0 -5 9 -10 20 -10 11 0 20 5 20 10 0 6 -9 10 -20 10 -11
0 -20 -4 -20 -10z"/>
<path d="M760 2790 c0 -7 170 -10 490 -10 320 0 490 3 490 10 0 7 -170 10
-490 10 -320 0 -490 -3 -490 -10z"/>
<path d="M1780 2790 c0 -5 18 -10 40 -10 22 0 40 5 40 10 0 6 -18 10 -40 10
-22 0 -40 -4 -40 -10z"/>
<path d="M3820 2770 c0 -6 53 -10 140 -10 87 0 140 4 140 10 0 6 -53 10 -140
10 -87 0 -140 -4 -140 -10z"/>
<path d="M760 2750 c0 -7 170 -10 490 -10 320 0 490 3 490 10 0 7 -170 10
-490 10 -320 0 -490 -3 -490 -10z"/>
<path d="M1780 2750 c0 -5 18 -10 40 -10 22 0 40 5 40 10 0 6 -18 10 -40 10
-22 0 -40 -4 -40 -10z"/>
<path d="M2220 2750 c0 -5 9 -10 20 -10 11 0 20 5 20 10 0 6 -9 10 -20 10 -11
0 -20 -4 -20 -10z"/>
<path d="M3820 2730 c0 -6 53 -10 140 -10 87 0 140 4 140 10 0 6 -53 10 -140
10 -87 0 -140 -4 -140 -10z"/>
<path d="M760 2710 c0 -7 163 -10 470 -10 307 0 470 3 470 10 0 7 -163 10
-470 10 -307 0 -470 -3 -470 -10z"/>
<path d="M1780 2710 c0 -6 27 -10 60 -10 33 0 60 4 60 10 0 6 -27 10 -60 10
-33 0 -60 -4 -60 -10z"/>
<path d="M2060 2660 c0 -53 2 -60 20 -60 18 0 20 7 20 60 0 53 -2 60 -20 60
-18 0 -20 -7 -20 -60z"/>
<path d="M2220 2710 c0 -5 9 -10 20 -10 11 0 20 5 20 10 0 6 -9 10 -20 10 -11
0 -20 -4 -20 -10z"/>
<path d="M3820 2690 c0 -6 53 -10 140 -10 87 0 140 4 140 10 0 6 -53 10 -140
10 -87 0 -140 -4 -140 -10z"/>
<path d="M3960 2650 c0 -6 -27 -10 -60 -10 -33 0 -60 -4 -60 -10 0 -6 63 -10
170 -10 107 0 170 4 170 10 0 6 -40 10 -100 10 -60 0 -100 4 -100 10 0 6 -4
10 -10 10 -5 0 -10 -4 -10 -10z"/>
<path d="M760 2630 c0 -6 117 -10 330 -10 213 0 330 4 330 10 0 6 -117 10
-330 10 -213 0 -330 -4 -330 -10z"/>
<path d="M760 2590 c0 -6 117 -10 330 -10 213 0 330 4 330 10 0 6 -117 10
-330 10 -213 0 -330 -4 -330 -10z"/>
<path d="M2180 2430 c0 -5 9 -10 20 -10 11 0 20 5 20 10 0 6 -9 10 -20 10 -11
0 -20 -4 -20 -10z"/>
<path d="M3220 2390 c0 -5 9 -10 20 -10 11 0 20 5 20 10 0 6 -9 10 -20 10 -11
0 -20 -4 -20 -10z"/>
<path d="M3580 2310 c0 -6 33 -10 80 -10 47 0 80 4 80 10 0 6 -33 10 -80 10
-47 0 -80 -4 -80 -10z"/>
<path d="M2460 2270 c0 -5 18 -10 40 -10 22 0 40 5 40 10 0 6 -18 10 -40 10
-22 0 -40 -4 -40 -10z"/>
<path d="M4180 2250 c0 -5 5 -10 10 -10 6 0 10 5 10 10 0 6 -4 10 -10 10 -5 0
-10 -4 -10 -10z"/>
<path d="M760 2070 c0 -6 137 -10 390 -10 253 0 390 4 390 10 0 6 -137 10
-390 10 -253 0 -390 -4 -390 -10z"/>
<path d="M760 2030 c0 -6 130 -10 370 -10 240 0 370 4 370 10 0 6 -130 10
-370 10 -240 0 -370 -4 -370 -10z"/>
<path d="M760 1990 c0 -6 117 -10 330 -10 213 0 330 4 330 10 0 6 -117 10
-330 10 -213 0 -330 -4 -330 -10z"/>
<path d="M1460 1990 c0 -5 9 -10 20 -10 11 0 20 5 20 10 0 6 -9 10 -20 10 -11
0 -20 -4 -20 -10z"/>
<path d="M3900 1990 c0 -6 50 -10 130 -10 80 0 130 4 130 10 0 6 -50 10 -130
10 -80 0 -130 -4 -130 -10z"/>
<path d="M760 1950 c0 -6 117 -10 330 -10 213 0 330 4 330 10 0 6 -117 10
-330 10 -213 0 -330 -4 -330 -10z"/>
<path d="M760 1910 c0 -6 117 -10 330 -10 213 0 330 4 330 10 0 6 -117 10
-330 10 -213 0 -330 -4 -330 -10z"/>
<path d="M4100 1910 c0 -5 14 -10 30 -10 17 0 30 5 30 10 0 6 -13 10 -30 10
-16 0 -30 -4 -30 -10z"/>
<path d="M760 1870 c0 -6 123 -10 350 -10 227 0 350 4 350 10 0 6 -123 10
-350 10 -227 0 -350 -4 -350 -10z"/>
<path d="M4100 1870 c0 -5 9 -10 20 -10 11 0 20 5 20 10 0 6 -9 10 -20 10 -11
0 -20 -4 -20 -10z"/>
<path d="M760 1830 c0 -6 123 -10 350 -10 227 0 350 4 350 10 0 6 -123 10
-350 10 -227 0 -350 -4 -350 -10z"/>
<path d="M3680 1830 c0 -6 30 -10 70 -10 40 0 70 4 70 10 0 6 -30 10 -70 10
-40 0 -70 -4 -70 -10z"/>
<path d="M4100 1830 c0 -5 9 -10 20 -10 11 0 20 5 20 10 0 6 -9 10 -20 10 -11
0 -20 -4 -20 -10z"/>
<path d="M700 1430 c0 -23 4 -30 20 -30 16 0 20 7 20 30 0 23 -4 30 -20 30
-16 0 -20 -7 -20 -30z"/>
<path d="M700 1320 c0 -33 -3 -40 -20 -40 -11 0 -20 -4 -20 -10 0 -6 33 -10
80 -10 47 0 80 4 80 10 0 6 -18 10 -40 10 l-40 0 0 40 c0 33 -3 40 -20 40 -17
0 -20 -7 -20 -40z"/>
<path d="M760 1310 c0 -5 5 -10 10 -10 6 0 10 5 10 10 0 6 -4 10 -10 10 -5 0
-10 -4 -10 -10z"/>
<path d="M860 1310 c0 -6 120 -10 340 -10 220 0 340 4 340 10 0 6 -120 10
-340 10 -220 0 -340 -4 -340 -10z"/>
<path d="M900 1270 c0 -6 93 -10 260 -10 167 0 260 4 260 10 0 6 -93 10 -260
10 -167 0 -260 -4 -260 -10z"/>
<path d="M700 1230 c0 -5 18 -10 40 -10 22 0 40 -4 40 -10 0 -5 9 -10 20 -10
13 0 20 7 20 20 0 18 -7 20 -60 20 -33 0 -60 -4 -60 -10z"/>
<path d="M940 1230 c0 -6 27 -10 60 -10 33 0 60 4 60 10 0 6 -27 10 -60 10
-33 0 -60 -4 -60 -10z"/>
<path d="M1140 1230 c0 -6 40 -10 100 -10 60 0 100 4 100 10 0 6 -40 10 -100
10 -60 0 -100 -4 -100 -10z"/>
<path d="M700 1180 c0 -13 7 -20 20 -20 13 0 20 7 20 20 0 13 -7 20 -20 20
-13 0 -20 -7 -20 -20z"/>
<path d="M1140 1190 c0 -6 27 -10 60 -10 33 0 60 4 60 10 0 6 -27 10 -60 10
-33 0 -60 -4 -60 -10z"/>
<path d="M860 1150 c0 -5 9 -10 20 -10 11 0 20 5 20 10 0 6 -9 10 -20 10 -11
0 -20 -4 -20 -10z"/>
<path d="M1020 1150 c0 -5 9 -10 20 -10 11 0 20 5 20 10 0 6 -9 10 -20 10 -11
0 -20 -4 -20 -10z"/>
<path d="M1140 1150 c0 -5 9 -10 20 -10 11 0 20 5 20 10 0 6 -9 10 -20 10 -11
0 -20 -4 -20 -10z"/>
<path d="M700 1110 c0 -5 9 -10 20 -10 11 0 20 5 20 10 0 6 -9 10 -20 10 -11
0 -20 -4 -20 -10z"/>
<path d="M860 1110 c0 -5 18 -10 40 -10 22 0 40 5 40 10 0 6 -18 10 -40 10
-22 0 -40 -4 -40 -10z"/>
<path d="M980 1110 c0 -5 9 -10 20 -10 11 0 20 5 20 10 0 6 -9 10 -20 10 -11
0 -20 -4 -20 -10z"/>
<path d="M200 600 l0 -480 30 0 c28 0 30 -2 30 -40 0 -33 3 -40 20 -40 20 0
20 7 20 340 0 220 4 340 10 340 6 0 10 53 10 140 l0 140 -30 0 c-28 0 -30 2
-30 40 0 38 -2 40 -30 40 l-30 0 0 -480z"/>
<path d="M900 1070 c0 -6 27 -10 60 -10 33 0 60 4 60 10 0 6 -27 10 -60 10
-33 0 -60 -4 -60 -10z"/>
<path d="M4560 900 c0 -113 -4 -180 -10 -180 -6 0 -10 -67 -10 -180 l0 -180
-40 0 -40 0 0 -40 0 -40 -1940 0 -1940 0 0 40 0 40 -40 0 -40 0 0 180 c0 113
4 180 10 180 6 0 10 53 10 140 l0 140 -80 0 -80 0 0 -140 c0 -87 -4 -140 -10
-140 -6 0 -10 -107 -10 -300 l0 -300 40 0 40 0 0 -40 0 -40 2100 0 2100 0 0
40 0 40 40 0 40 0 0 300 c0 193 4 300 10 300 6 0 10 67 10 180 l0 180 -80 0
-80 0 0 -180z"/>
<path d="M940 1030 c0 -5 18 -10 40 -10 22 0 40 5 40 10 0 6 -18 10 -40 10
-22 0 -40 -4 -40 -10z"/>
<path d="M760 990 c0 -5 23 -10 50 -10 28 0 50 5 50 10 0 6 -22 10 -50 10 -27
0 -50 -4 -50 -10z"/>
<path d="M940 990 c0 -5 18 -10 40 -10 22 0 40 5 40 10 0 6 -18 10 -40 10 -22
0 -40 -4 -40 -10z"/>
<path d="M800 950 c0 -6 30 -10 70 -10 40 0 70 4 70 10 0 6 -30 10 -70 10 -40
0 -70 -4 -70 -10z"/>
<path d="M4240 570 c0 -6 -43 -10 -110 -10 -67 0 -110 -4 -110 -10 0 -6 43
-10 110 -10 67 0 110 -4 110 -10 0 -5 5 -10 10 -10 6 0 10 14 10 30 0 17 -4
30 -10 30 -5 0 -10 -4 -10 -10z"/>
</g>
</svg>
